<?xml version="1.0" encoding="utf-8"?>
<!-- Generator: Adobe Illustrator 23.0.1, SVG Export Plug-In . SVG Version: 6.00 Build 0)  -->
<svg version="1.1" id="Layer" xmlns="http://www.w3.org/2000/svg" xmlns:xlink="http://www.w3.org/1999/xlink" x="0px" y="0px"
	 viewBox="0 0 512 512" style="enable-background:new 0 0 512 512;" xml:space="preserve">
<style type="text/css">
	.st0{fill:#FFFFFF;}
	.st1{fill:#767676;}
</style>
<g>
	<path class="st0" d="M0,512h249.4c-41.8-2.2-81.8-24.8-104.3-63.8c-35.3-61.3-14.3-139.6,46.9-174.9V64c0-35.3,28.7-64,64-64H0V512
		z"/>
	<path class="st0" d="M256,0c35.3,0,64,28.7,64,64v209.3c19.5,11.2,35.6,27.4,46.9,46.8c35.3,61.3,14.3,139.6-46.9,174.9
		c-18.1,10.4-37.7,16-57.3,17H512V0H256z"/>
</g>
<path class="st1" d="M366.9,319.9c-11.3-19.4-27.4-35.6-46.9-46.8V64c0-35.3-28.7-64-64-64s-64,28.7-64,64v209.2
	c-61.2,35.3-82.2,113.5-46.9,174.8c35.3,61.3,113.7,82,174.9,46.8S402.2,381.2,366.9,319.9z M344.9,434.9
	c-18.4,31.8-52.3,51.3-88.9,51.3c-56.5,0.1-102.4-45.7-102.4-102.1c0-36.6,19.5-70.5,51.3-88.7l12.8-7.4v-32h25.6
	c7.1,0,12.8-5.7,12.8-12.8c0-7.1-5.7-12.8-12.8-12.8h-25.6v-25.6h25.6c7.1,0,12.8-5.7,12.8-12.8c0-7.1-5.7-12.8-12.8-12.8h-25.6
	v-25.6v-0.2h26.7c6.3,0,11.5-5.2,11.5-11.5v-1.8c0-6.3-5.2-11.5-11.5-11.5h-26.7V80.4h76.8v73.2v134.3l12.8,7.4
	C356.3,323.4,373.1,386,344.9,434.9z"/>
</svg>
