<?xml version="1.0" encoding="utf-8"?>
<!-- Generator: Adobe Illustrator 23.0.1, SVG Export Plug-In . SVG Version: 6.00 Build 0)  -->
<svg version="1.1" id="Thermostat" xmlns="http://www.w3.org/2000/svg" xmlns:xlink="http://www.w3.org/1999/xlink" x="0px" y="0px"
	 viewBox="0 0 512 512" style="enable-background:new 0 0 512 512;" xml:space="preserve">
<style type="text/css">
	.st0{fill:#FFFFFF;}
</style>
<path class="st0" d="M320,273.3V64c0-35.3-28.7-64-64-64s-64,28.7-64,64v209.3c-61.2,35.3-82.2,113.6-46.9,174.9
	S258.8,530.3,320,495s82.2-113.6,46.9-174.9C355.6,300.7,339.5,284.5,320,273.3z M256,486.4c-56.5,0.1-102.4-45.7-102.4-102.2
	c0-36.6,19.5-70.5,51.3-88.8l12.8-7.4v-32h25.6c7.1,0,12.8-5.7,12.8-12.8s-5.7-12.8-12.8-12.8h-25.6v-25.6h25.6
	c7.1,0,12.8-5.7,12.8-12.8s-5.7-12.8-12.8-12.8h-25.6v-25.6h76.8V288l12.8,7.4c49,28.2,65.8,90.8,37.6,139.7
	C326.5,466.9,292.6,486.4,256,486.4z"/>
</svg>
