<?xml version="1.0" encoding="iso-8859-1"?>
<!-- Generator: Adobe Illustrator 16.0.0, SVG Export Plug-In . SVG Version: 6.00 Build 0)  -->
<!DOCTYPE svg PUBLIC "-//W3C//DTD SVG 1.1//EN" "http://www.w3.org/Graphics/SVG/1.1/DTD/svg11.dtd">
<svg version="1.1" id="Capa_1" xmlns="http://www.w3.org/2000/svg" xmlns:xlink="http://www.w3.org/1999/xlink" x="0px" y="0px"
	 width="575.218px" height="575.219px" viewBox="0 0 575.218 575.219" style="enable-background:new 0 0 575.218 575.219;"
	 xml:space="preserve">
<path d="M124.9,412.513h198.154c26.402,20.131,59.369,32.121,95.137,32.121c86.734,0,157.027-70.287,157.027-157.021
	c0-86.725-70.293-157.027-157.027-157.027c-35.768,0-68.729,11.984-95.125,32.124H124.9C56.023,162.721,0,218.747,0,287.612
	C0,356.48,56.023,412.513,124.9,412.513z M418.191,201.189c47.666,0,86.43,38.776,86.43,86.423c0,47.666-38.77,86.43-86.43,86.43
	c-47.654,0-86.424-38.764-86.424-86.43C331.767,239.959,370.531,201.189,418.191,201.189z M124.9,217.027h153.045
	c-10.708,21.224-16.767,45.197-16.767,70.585c0,25.404,6.065,49.371,16.767,70.598H124.9c-38.928,0-70.598-31.676-70.598-70.598
	C54.303,248.693,85.973,217.027,124.9,217.027z"/>
</svg>
